<svg width="42" height="37" viewBox="0 0 42 37" fill="none" xmlns="http://www.w3.org/2000/svg">
<g id="jam:coffee">
<path id="Vector" d="M10.9061 10.7548C10.2609 10.6519 9.68283 10.34 9.28554 9.88053C8.88826 9.42104 8.70056 8.8472 8.75936 8.27192C8.81817 7.69664 9.11923 7.16158 9.60331 6.772C10.0874 6.38242 10.7194 6.16654 11.3751 6.16683H12.2501C12.2501 5.34908 12.6188 4.56482 13.2752 3.98658C13.9316 3.40835 14.8218 3.0835 15.7501 3.0835H26.2501C27.1784 3.0835 28.0686 3.40835 28.725 3.98658C29.3813 4.56482 29.7501 5.34908 29.7501 6.16683H30.6251C31.2808 6.16654 31.9128 6.38242 32.3969 6.772C32.881 7.16158 33.182 7.69664 33.2408 8.27192C33.2996 8.8472 33.1119 9.42104 32.7146 9.88053C32.3174 10.34 31.7393 10.6519 31.0941 10.7548L30.3101 16.6209C30.8733 17.2637 31.1243 18.0769 31.0083 18.8825L30.1333 25.0492C30.025 25.8174 29.592 26.5215 28.9206 27.021L28.1821 32.5555C28.1319 32.9306 27.9273 33.2763 27.607 33.5272C27.2867 33.7781 26.873 33.9168 26.4443 33.9168H15.5558C15.1272 33.9168 14.7135 33.7781 14.3932 33.5272C14.0729 33.2763 13.8682 32.9306 13.8181 32.5555L13.0796 27.021C12.4082 26.5215 11.9752 25.8174 11.8668 25.0492L10.9918 18.8825C10.8769 18.0768 11.1286 17.2637 11.6918 16.6209L10.9061 10.7548ZM14.4376 10.7918L15.0553 15.4168H26.9483L27.5661 10.7918H14.4376ZM15.3423 24.6668H26.6613L27.5363 18.5002H14.4656L15.3423 24.6668ZM16.7021 27.7502L17.1133 30.8335H24.8903L25.3016 27.7502H16.7021Z" fill="black"/>
</g>
</svg>
